<?xml version="1.0" encoding="UTF-8" standalone="no"?>
<!-- Created with Inkscape (http://www.inkscape.org/) -->

<svg
   width="512"
   height="512"
   viewBox="0 0 135.46666 135.46667"
   version="1.1"
   id="svg5"
   inkscape:version="1.2.2 (732a01da63, 2022-12-09)"
   xml:space="preserve"
   sodipodi:docname="abook.svg"
   xmlns:inkscape="http://www.inkscape.org/namespaces/inkscape"
   xmlns:sodipodi="http://sodipodi.sourceforge.net/DTD/sodipodi-0.dtd"
   xmlns="http://www.w3.org/2000/svg"
   xmlns:svg="http://www.w3.org/2000/svg"><sodipodi:namedview
     id="namedview7"
     pagecolor="#ffffff"
     bordercolor="#000000"
     borderopacity="0.25"
     inkscape:showpageshadow="2"
     inkscape:pageopacity="0.0"
     inkscape:pagecheckerboard="0"
     inkscape:deskcolor="#d1d1d1"
     inkscape:document-units="px"
     showgrid="false"
     inkscape:zoom="0.75544416"
     inkscape:cx="252.83139"
     inkscape:cy="329.60742"
     inkscape:window-width="1366"
     inkscape:window-height="705"
     inkscape:window-x="-8"
     inkscape:window-y="-8"
     inkscape:window-maximized="1"
     inkscape:current-layer="layer1" /><defs
     id="defs2" /><g
     inkscape:label="Layer 1"
     inkscape:groupmode="layer"
     id="layer1"><path
       style="display:inline;fill:#000000;stroke:none;stroke-width:0.264583"
       d="m 17.673325,52.310857 c -4.001743,0.174361 -7.540466,2.996142 -8.6016037,6.879167 -1.6095926,5.889889 -0.3942291,13.488722 -0.3942291,19.579165 0,3.601773 -0.5339556,7.634552 1.4468478,10.847916 3.852095,6.248929 12.9767,4.497917 19.190651,4.497917 V 52.310857 h -7.672916 c 0.347715,-8.098101 4.655952,-16.467401 9.495102,-22.754165 1.588822,-2.064094 3.600978,-4.860475 5.85073,-6.22771 1.389327,-0.844311 3.019161,0.797693 4.7625,-0.271118 9.322858,-5.715291 18.856589,-10.14259 30.162499,-9.066662 6.407679,0.609785 12.58861,2.37408 18.256249,5.456396 2.045493,1.11252 3.79042,2.745449 5.820833,3.851169 1.617133,0.880613 3.188229,-0.755676 4.497912,0.03104 2.24923,1.350962 4.26773,4.170388 5.85074,6.226889 4.83023,6.275122 9.14796,14.673262 9.4951,22.754165 h -7.67292 v 41.804165 c 6.22776,0 15.33207,1.751012 19.19076,-4.497917 2.03941,-3.302793 1.44674,-7.40357 1.44674,-11.112499 0,-8.225366 3.33057,-25.65638 -8.99583,-26.193749 -1.10041,-8.661928 -4.31059,-17.035726 -9.49431,-24.077082 -2.10582,-2.860569 -5.05645,-5.128286 -7.09718,-7.941362 -1.12157,-1.546018 0.60536,-3.262317 -1.16443,-4.847038 C 88.688282,3.484334 67.370804,1.6820215 51.010823,7.1552953 45.712278,8.9278977 39.871601,11.589844 35.670018,15.348594 c -1.90844,1.707303 -0.192881,3.331686 -1.402292,4.937257 -2.046022,2.716292 -4.876006,4.904528 -6.942825,7.683341 -5.275368,7.092685 -8.540141,15.592953 -9.651576,24.341665 m 39.957109,15.012987 c -1.821392,0.72734 -1.563952,3.149071 0.260879,3.6576 1.666345,0.464608 3.832754,0.114829 5.554926,0.114829 h 11.1125 c 1.603904,0 4.421716,0.534458 5.781675,-0.460904 1.682485,-1.231635 0.436298,-3.28639 -1.283759,-3.479006 -4.813035,-0.538956 -9.971351,-0.02884 -14.816666,-0.02884 -1.934897,0 -4.796101,-0.527579 -6.609555,0.196321 m -0.473869,10.659004 c -1.311804,0.802216 -0.931598,2.905389 0.480483,3.317345 1.64465,0.479955 3.839369,0.11483 5.544608,0.11483 h 11.641666 c 1.49225,0 4.498446,0.567002 5.706004,-0.460905 1.210998,-1.030552 0.485246,-2.913327 -0.947473,-3.182937 -5.096668,-0.95885 -11.208014,-0.06032 -16.400197,-0.06032 -1.596231,0 -4.631266,-0.580231 -6.025091,0.271992 z"
       id="path176" /><rect
       style="display:inline;fill:#2c9bd3;fill-opacity:1;stroke:none;stroke-width:0.264583"
       id="rect1639"
       width="76.351334"
       height="82.305336"
       x="30.470488"
       y="49.467106"
       ry="5.2916665"
       rx="5.2916665" /><rect
       style="fill:#ffffff;fill-opacity:1;stroke:none;stroke-width:0.848776"
       id="rect1641"
       width="71.272919"
       height="14.359653"
       x="31.871428"
       y="111.02464"
       rx="5.1896586" /><rect
       style="fill:#2c9bd3;fill-opacity:1;stroke:none;stroke-width:0.264583"
       id="rect232"
       width="76.351334"
       height="82.305336"
       x="30.470488"
       y="37.825428"
       rx="5.2916665"
       ry="5.2916665" /></g></svg>
