<?xml version="1.0" encoding="UTF-8" standalone="no"?>
<!-- Created with Inkscape (http://www.inkscape.org/) -->

<svg
   width="512"
   height="512"
   viewBox="0 0 135.46666 135.46667"
   version="1.1"
   id="svg5"
   inkscape:version="1.2.2 (732a01da63, 2022-12-09)"
   xml:space="preserve"
   sodipodi:docname="audio.svg"
   xmlns:inkscape="http://www.inkscape.org/namespaces/inkscape"
   xmlns:sodipodi="http://sodipodi.sourceforge.net/DTD/sodipodi-0.dtd"
   xmlns="http://www.w3.org/2000/svg"
   xmlns:svg="http://www.w3.org/2000/svg"><sodipodi:namedview
     id="namedview7"
     pagecolor="#ffffff"
     bordercolor="#000000"
     borderopacity="0.25"
     inkscape:showpageshadow="2"
     inkscape:pageopacity="0.0"
     inkscape:pagecheckerboard="0"
     inkscape:deskcolor="#d1d1d1"
     inkscape:document-units="px"
     showgrid="false"
     inkscape:zoom="1.0683594"
     inkscape:cx="234.00366"
     inkscape:cy="256.46801"
     inkscape:window-width="1366"
     inkscape:window-height="705"
     inkscape:window-x="-8"
     inkscape:window-y="-8"
     inkscape:window-maximized="1"
     inkscape:current-layer="layer1" /><defs
     id="defs2" /><g
     inkscape:label="Layer 1"
     inkscape:groupmode="layer"
     id="layer1"><path
       style="fill:#269bbb;stroke:none;stroke-width:0.198162"
       d="M 63.99213,4.5018283 C 60.198414,4.9997496 56.43324,5.2460512 52.694821,6.1800761 42.137585,8.8177023 32.325773,14.049617 24.35245,21.474128 18.516379,26.908565 13.388629,33.735516 10.196248,41.070652 6.1270444,50.420313 3.6489539,60.722552 4.3521512,70.987346 4.948297,79.689539 7.0111599,88.317434 10.928492,96.149069 22.813261,119.90965 49.149647,134.04004 75.487638,130.76427 105.72261,127.00387 129.83582,101.33 131.17366,70.789223 132.49901,40.532944 111.61029,12.835019 82.028184,6.0262845 76.348215,4.7189369 69.818767,3.7370611 63.99213,4.5018283 M 54.875003,75.940441 c 1.108524,1.500986 3.430022,1.888714 4.268996,3.569202 0.789821,1.581819 -1.23319,2.321811 -1.356668,3.761379 -0.132,1.541998 0.844126,2.765214 0.153208,4.358724 -1.123785,2.591856 -3.741591,2.971856 -6.23671,2.971856 -4.086454,0 -9.522244,-1.305436 -13.081094,1.310194 -5.401105,3.969212 -5.223717,12.982854 -4.756762,18.898424 -3.924328,-2.68239 -7.252476,-6.52401 -10.083046,-10.30243 C 10.665106,82.996819 9.4524885,58.43244 20.705658,39.683786 c 3.735783,-6.224059 8.684599,-11.719221 14.547704,-16.017279 1.386398,-1.016355 4.33222,-3.724748 6.144151,-3.498213 2.092776,0.261623 4.768455,2.583931 6.342348,3.880374 5.753501,4.739497 9.931722,11.907814 10.66902,19.39947 0.350414,3.560483 -0.586667,7.449456 0.533154,10.896809 0.771983,2.376495 2.412074,4.516232 4.143338,6.283497 1.161244,1.185176 2.937299,2.517757 2.620182,4.415188 -0.497676,2.978396 -4.0044,1.86811 -5.563826,3.633591 -1.23319,1.395981 0.572398,2.782253 0.194037,4.290569 -0.473694,1.888517 -3.903914,2.372334 -5.460763,2.972649 M 104.4246,34.029332 c 1.79687,-0.05607 3.01302,1.270371 4.14453,2.484473 2.47926,2.660605 4.70365,5.697248 6.4034,8.915572 7.12503,13.490051 7.66135,29.469924 0.79834,43.190988 -1.84027,3.679159 -4.12451,7.016158 -6.84439,10.104316 -1.21178,1.376159 -2.67706,3.044169 -4.70008,2.866849 -3.13252,-0.2746 -4.518923,-3.79724 -2.66913,-6.234956 2.57836,-3.397823 5.38623,-6.250608 7.37476,-10.104314 5.38406,-10.434388 5.46334,-23.058243 0.58449,-33.681046 -1.26391,-2.75194 -2.91352,-5.37292 -4.81682,-7.726828 -1.07503,-1.329609 -2.51949,-2.515183 -3.41774,-3.962477 -1.563181,-2.518945 0.17819,-5.760251 3.14264,-5.852577 m -10.504511,9.684293 c 4.453716,-0.85966 8.280141,6.48578 9.793571,9.838827 4.44936,9.857452 4.26543,20.995774 -1.04549,30.511066 -1.44883,2.595817 -4.252547,7.651342 -7.558891,7.906328 -2.487589,0.191784 -4.512977,-2.089809 -3.721175,-4.538223 0.480829,-1.486919 1.849984,-2.572441 2.796381,-3.764354 1.443479,-1.817983 2.596795,-3.820618 3.528923,-5.943713 2.921052,-6.65379 2.702822,-14.941705 -0.685568,-21.39737 -1.436542,-2.736685 -3.720779,-4.744868 -5.286943,-7.330581 -1.201082,-1.98322 -0.198198,-4.823126 2.179192,-5.28198 m -9.117127,9.111514 c 3.459355,-0.62409 5.754691,3.225852 7.081629,5.878532 3.014994,6.027718 2.837607,13.643399 -0.701821,19.416133 -1.088109,1.774594 -2.695498,4.509496 -4.992419,4.734168 -2.19703,0.214964 -4.113211,-1.240454 -4.093986,-3.545426 0.01447,-1.734574 1.471821,-2.868238 2.411281,-4.1606 1.149154,-1.580631 2.024597,-3.59555 2.243012,-5.547465 0.339117,-3.029512 -0.249334,-5.906665 -1.841461,-8.519325 -0.823713,-1.351997 -2.274129,-2.402845 -2.696886,-3.962475 -0.500253,-1.845722 0.660397,-3.94524 2.590651,-4.293542 z"
       id="path122" /></g></svg>
