<?xml version="1.0" encoding="UTF-8" standalone="no"?>
<!-- Created with Inkscape (http://www.inkscape.org/) -->

<svg
   width="512"
   height="512"
   viewBox="0 0 135.46666 135.46667"
   version="1.1"
   id="svg5"
   inkscape:version="1.2.2 (732a01da63, 2022-12-09)"
   xml:space="preserve"
   sodipodi:docname="music.svg"
   xmlns:inkscape="http://www.inkscape.org/namespaces/inkscape"
   xmlns:sodipodi="http://sodipodi.sourceforge.net/DTD/sodipodi-0.dtd"
   xmlns="http://www.w3.org/2000/svg"
   xmlns:svg="http://www.w3.org/2000/svg"><sodipodi:namedview
     id="namedview7"
     pagecolor="#ffffff"
     bordercolor="#000000"
     borderopacity="0.25"
     inkscape:showpageshadow="2"
     inkscape:pageopacity="0.0"
     inkscape:pagecheckerboard="0"
     inkscape:deskcolor="#d1d1d1"
     inkscape:document-units="px"
     showgrid="false"
     inkscape:zoom="0.53417969"
     inkscape:cx="110.44973"
     inkscape:cy="243.3638"
     inkscape:window-width="1366"
     inkscape:window-height="705"
     inkscape:window-x="-8"
     inkscape:window-y="-8"
     inkscape:window-maximized="1"
     inkscape:current-layer="layer1" /><defs
     id="defs2" /><g
     inkscape:label="Layer 1"
     inkscape:groupmode="layer"
     id="layer1"><path
       style="fill:#008080;stroke-width:0.543765"
       d="m 25.386812,133.44964 c -6.238119,-1.28827 -11.573804,-5.85547 -13.065665,-11.18387 -2.8779681,-10.2791 5.099771,-23.09489 17.392623,-27.940285 6.4975,-2.56107 14.613334,-2.5525 19.657348,0.0208 1.14023,0.58171 2.20524,1.05764 2.366691,1.05764 0.161455,0 0.296408,-17.31215 0.299908,-38.47145 l 0.0064,-38.471479 28.133538,-6.709435 C 95.651105,8.0613714 111.68035,4.2378506 115.79821,3.2548476 l 7.48702,-1.78728 -0.14618,53.9011904 -0.14619,53.901192 -1.76302,3.72246 c -3.73818,7.89283 -12.8966,14.60564 -22.035315,16.15112 -9.23451,1.56169 -17.92754,-2.10905 -21.35228,-9.01628 -0.83836,-1.69086 -1.0695,-3.27988 -1.0695,-7.35248 0,-4.81768 0.13256,-5.45652 1.82301,-8.7858 6.54786,-12.895765 24.114465,-19.762785 35.613605,-13.921855 1.15049,0.58439 2.19202,0.96233 2.31449,0.83986 0.12246,-0.12247 0.15993,-18.43717 0.0833,-40.699333 L 116.46773,9.7309804 87.732665,16.639651 C 71.928299,20.439398 58.905621,23.6402 58.793299,23.752522 58.680983,23.864837 58.520587,44.130989 58.436875,68.788405 l -0.152206,44.831655 -1.748241,3.69087 c -3.150279,6.65085 -9.909655,12.50559 -17.303972,14.9881 -3.905739,1.31128 -10.438712,1.85418 -13.84564,1.15061 z"
       id="path2251" /></g></svg>
