<?xml version="1.0" encoding="UTF-8" standalone="no"?>
<!-- Created with Inkscape (http://www.inkscape.org/) -->

<svg
   width="512"
   height="512"
   viewBox="0 0 135.46666 135.46667"
   version="1.1"
   id="svg5"
   inkscape:version="1.2.2 (732a01da63, 2022-12-09)"
   xml:space="preserve"
   sodipodi:docname="om.svg"
   xmlns:inkscape="http://www.inkscape.org/namespaces/inkscape"
   xmlns:sodipodi="http://sodipodi.sourceforge.net/DTD/sodipodi-0.dtd"
   xmlns="http://www.w3.org/2000/svg"
   xmlns:svg="http://www.w3.org/2000/svg"><sodipodi:namedview
     id="namedview7"
     pagecolor="#ffffff"
     bordercolor="#000000"
     borderopacity="0.25"
     inkscape:showpageshadow="2"
     inkscape:pageopacity="0.0"
     inkscape:pagecheckerboard="0"
     inkscape:deskcolor="#d1d1d1"
     inkscape:document-units="px"
     showgrid="false"
     inkscape:zoom="1.0683594"
     inkscape:cx="255.53199"
     inkscape:cy="181.58684"
     inkscape:window-width="1366"
     inkscape:window-height="705"
     inkscape:window-x="-8"
     inkscape:window-y="-8"
     inkscape:window-maximized="1"
     inkscape:current-layer="layer1" /><defs
     id="defs2" /><g
     inkscape:label="Layer 1"
     inkscape:groupmode="layer"
     id="layer1"><path
       style="fill:#008080;stroke-width:0.377247"
       d="M 42.221336,133.74723 C 33.55726,132.87523 25.785165,128.90028 19.010049,121.87611 10.984156,113.55518 6.2159846,103.05736 4.4694816,89.862931 3.8605096,85.262282 3.7822486,76.093487 4.3471166,75.527181 c 0.540517,-0.541893 1.566897,1.829734 3.146239,7.269914 3.5496024,12.22692 7.9154754,20.893415 12.5833154,24.978555 2.593404,2.26966 7.165599,4.49373 11.790152,5.73513 3.364058,0.90304 4.416838,1.00805 10.16589,1.01395 5.974507,0.006 6.623798,-0.0634 9.491851,-1.01597 6.915012,-2.29678 10.974103,-7.26 11.367322,-13.899282 0.32125,-5.424033 -2.070385,-10.734785 -5.850192,-12.990682 -2.77619,-1.656907 -5.61381,-2.162665 -11.047077,-1.968947 l -4.566918,0.162826 -1.689464,-2.541315 c -2.530089,-3.805796 -4.900093,-9.103683 -6.023689,-13.465307 -0.551099,-2.139276 -0.926553,-3.965035 -0.834341,-4.057246 0.09221,-0.09221 1.764845,3.78e-4 3.716963,0.206158 12.605956,1.327666 20.054841,-1.215366 23.066742,-7.874928 1.085744,-2.400669 0.504213,-4.044034 -2.483556,-7.01838 -2.869169,-2.85628 -4.456508,-3.393355 -9.215786,-3.118146 -4.225343,0.244335 -9.59067,2.012585 -17.14938,5.651916 -3.065232,1.475833 -5.645464,2.611016 -5.733849,2.522631 -0.08839,-0.08839 -2.127045,-3.468753 -4.530356,-7.511923 l -4.369656,-7.351226 1.231026,-1.070994 c 7.221391,-6.282613 17.80575,-10.290581 28.282696,-10.709777 8.152787,-0.326202 11.919114,0.762905 16.134494,4.665603 6.083389,5.632144 8.761248,14.057978 6.85881,21.581104 -1.715922,6.785548 -6.270311,14.003836 -10.690066,16.942774 -1.42859,0.94995 -2.464688,1.853457 -2.30243,2.007789 0.677521,0.644448 7.594785,3.304302 9.163353,3.523528 2.08191,0.290974 4.765907,-0.455119 6.861456,-1.907336 2.019831,-1.399743 4.309629,-4.446491 6.925405,-9.214779 6.493973,-11.83782 10.010276,-16.413454 14.419506,-18.763546 5.9284,-3.159804 15.813693,-3.553831 21.181273,-0.844286 14.66561,7.403176 21.66658,30.420241 16.06874,52.829129 -2.90741,11.638702 -9.1853,19.582792 -17.92625,22.683962 -2.10565,0.74706 -3.19833,0.87167 -7.73357,0.88199 -6.356333,0.0144 -9.071943,-0.73467 -12.758643,-3.51957 -4.113054,-3.10697 -6.776387,-7.54089 -8.642259,-14.38767 -1.101635,-4.04242 -1.174296,-12.568715 -0.130192,-15.276174 l 0.726504,-1.883888 0.433903,1.883888 c 0.708515,3.076179 2.38776,5.864479 5.239685,8.700232 2.360989,2.347592 3.010359,2.771162 5.427829,3.540372 9.386933,2.98681 21.424853,-3.063852 26.509133,-13.324363 2.05567,-4.148513 2.77995,-8.309305 2.50418,-14.38573 -0.36263,-7.990148 -2.64697,-14.181183 -5.90132,-15.993811 -2.45141,-1.365405 -7.78147,-1.584144 -10.46552,-0.429496 -2.41425,1.03858 -6.00979,4.712344 -8.614633,8.802044 -5.48596,8.613163 -7.24593,11.106036 -9.35998,13.257738 -3.664544,3.729795 -3.801564,3.7744 -12.03619,3.91841 -5.481023,0.09586 -7.073388,0.23388 -7.073388,0.613089 0,0.269158 0.601956,1.810281 1.337675,3.424714 2.560875,5.61946 3.001813,7.86997 2.99119,15.266735 -0.01012,7.0388 -0.443798,9.68004 -2.271783,13.83554 -2.802658,6.37117 -10.24497,13.5396 -16.175166,15.57989 -3.322164,1.14299 -9.718015,1.71385 -14.175465,1.26521 z M 85.416155,42.275623 c -7.051371,-0.63356 -13.014746,-3.896766 -18.489317,-10.117492 -3.957544,-4.496936 -6.337696,-9.696975 -7.355935,-16.07089 -0.386595,-2.420015 -0.231988,-4.704869 0.316722,-4.680533 0.139131,0.0061 0.847123,1.06718 1.573324,2.357796 1.623112,2.884618 6.807345,8.15324 10.374302,10.54317 5.422889,3.633439 12.401319,4.885103 18.752686,3.363517 5.50858,-1.319681 9.11863,-3.228404 16.253163,-8.593431 2.03187,-1.527931 3.82045,-2.778055 3.97462,-2.778055 0.27216,0 3.0085,3.17996 6.48334,7.534434 0.93672,1.173838 2.02484,2.847684 2.41805,3.719656 0.94662,2.099241 0.55764,2.79862 -3.05894,5.499908 -5.90436,4.41007 -11.52046,6.955305 -18.295653,8.291636 -5.41031,1.067127 -8.75136,1.307203 -12.946362,0.930284 z M 79.8643,22.328984 c -3.759948,-2.823105 -6.023074,-5.087415 -7.033558,-7.037232 -0.386112,-0.745039 0.103785,-1.402526 5.402956,-7.2511519 l 5.827569,-6.4318205 6.39375,5.9077065 6.39375,5.9077069 -4.72729,5.003847 c -4.387338,4.644016 -6.978265,6.9256 -7.864584,6.9256 -0.200319,0 -2.176985,-1.361096 -4.392593,-3.024656 z"
       id="path3534" /></g></svg>
